<svg width="115" height="32" viewBox="0 0 115 32" fill="none" xmlns="http://www.w3.org/2000/svg">
<path d="M22 16C22.0014 14.853 21.6294 13.7367 20.94 12.82L23.6 10.18C24.1199 10.3973 24.6766 10.5127 25.24 10.52C25.7496 10.536 26.2573 10.4514 26.7342 10.2711C27.2111 10.0908 27.6478 9.81819 28.0192 9.469C28.3907 9.1198 28.6898 8.70082 28.8992 8.23599C29.1087 7.77117 29.2245 7.26961 29.24 6.76001C29.24 5.69914 28.8186 4.68173 28.0684 3.93158C27.3183 3.18144 26.3009 2.76001 25.24 2.76001C24.1791 2.76001 23.1617 3.18144 22.4116 3.93158C21.6614 4.68173 21.24 5.69914 21.24 6.76001C21.2426 7.37866 21.4081 7.98572 21.72 8.52001L19.06 11.18C18.125 10.6566 17.0715 10.3812 16 10.38C14.677 10.3618 13.385 10.7814 12.3252 11.5735C11.2654 12.3657 10.4971 13.486 10.14 14.76H8.76C8.45794 14.0131 7.93738 13.3748 7.26648 12.9288C6.59557 12.4827 5.8056 12.2496 5 12.26C3.97418 12.2276 2.97731 12.603 2.22762 13.3039C1.47794 14.0049 1.03652 14.9743 1 16C1.01552 16.5096 1.13132 17.0112 1.34078 17.476C1.55025 17.9408 1.84927 18.3598 2.22075 18.709C2.59224 19.0582 3.0289 19.3307 3.50578 19.5111C3.98266 19.6914 4.49041 19.776 5 19.76C5.8056 19.7704 6.59557 19.5373 7.26648 19.0913C7.93738 18.6452 8.45794 18.0069 8.76 17.26H10.14C10.4971 18.5341 11.2654 19.6543 12.3252 20.4465C13.385 21.2386 14.677 21.6582 16 21.64C16.7644 21.664 17.526 21.5371 18.2413 21.2666C18.9567 20.9961 19.6116 20.5873 20.1689 20.0635C20.7261 19.5397 21.1746 18.9112 21.4888 18.214C21.803 17.5167 21.9767 16.7644 22 16ZM25.24 5.52001C25.6031 5.48657 25.9647 5.59822 26.2458 5.83057C26.5269 6.06292 26.7045 6.39707 26.74 6.76001C26.6817 7.11579 26.4989 7.43927 26.2241 7.67268C25.9493 7.9061 25.6005 8.03425 25.24 8.03425C24.8795 8.03425 24.5307 7.9061 24.2559 7.67268C23.9811 7.43927 23.7983 7.11579 23.74 6.76001C23.7804 6.39915 23.9594 6.0681 24.2393 5.83674C24.5192 5.60539 24.878 5.49182 25.24 5.52001ZM5 17.26C4.63486 17.2879 4.27332 17.1716 3.99292 16.9361C3.71251 16.7005 3.53556 16.3645 3.5 16C3.5404 15.6391 3.71943 15.3081 3.9993 15.0767C4.27917 14.8454 4.63798 14.7318 5 14.76C5.36202 14.7318 5.72083 14.8454 6.0007 15.0767C6.28057 15.3081 6.4596 15.6391 6.5 16C6.46444 16.3645 6.28749 16.7005 6.00708 16.9361C5.72668 17.1716 5.36514 17.2879 5 17.26ZM16 19.14C15.1205 19.1837 14.2593 18.8783 13.6038 18.2903C12.9484 17.7022 12.5516 16.8791 12.5 16C12.5516 15.1226 12.949 14.3014 13.6051 13.7165C14.2612 13.1317 15.1224 12.8308 16 12.88C16.8763 12.8361 17.7346 13.1388 18.3895 13.7226C19.0444 14.3064 19.4433 15.1245 19.5 16C19.4433 16.8772 19.0451 17.6972 18.3908 18.2842C17.7365 18.8712 16.8782 19.1785 16 19.14Z" fill="#EC222D"/>
<path d="M5 8.75999C5.56453 8.76366 6.12345 8.64779 6.64 8.41999L10.16 12C10.6688 11.3186 11.2912 10.73 12 10.26L8.52 6.75999C8.83189 6.2257 8.99744 5.61865 9 4.99999C8.96348 3.97431 8.52206 3.00488 7.77238 2.30392C7.02269 1.60297 6.02582 1.2276 5 1.25999C3.97418 1.2276 2.97731 1.60297 2.22762 2.30392C1.47794 3.00488 1.03652 3.97431 1 4.99999C1.01552 5.5096 1.13132 6.01115 1.34078 6.47597C1.55025 6.9408 1.84927 7.35978 2.22075 7.70898C2.59224 8.05817 3.0289 8.33073 3.50578 8.51107C3.98266 8.69141 4.49041 8.776 5 8.75999ZM5 3.75999C5.36202 3.7318 5.72083 3.84537 6.0007 4.07673C6.28057 4.30808 6.4596 4.63913 6.5 4.99999C6.46444 5.36447 6.28749 5.7005 6.00708 5.93604C5.72668 6.17159 5.36514 6.28788 5 6.25999C4.63486 6.28788 4.27332 6.17159 3.99292 5.93604C3.71251 5.7005 3.53556 5.36447 3.5 4.99999C3.5404 4.63913 3.71943 4.30808 3.9993 4.07673C4.27917 3.84537 4.63798 3.7318 5 3.75999ZM27 23.26C26.4355 23.2563 25.8765 23.3722 25.36 23.6L21.84 20C21.32 20.6617 20.691 21.2298 19.98 21.68L23.46 25.16C23.1542 25.6959 22.9955 26.303 23 26.92C23 27.9809 23.4214 28.9983 24.1716 29.7484C24.9217 30.4986 25.9391 30.92 27 30.92C28.0609 30.92 29.0783 30.4986 29.8284 29.7484C30.5786 28.9983 31 27.9809 31 26.92C30.9431 25.9085 30.4928 24.9593 29.7453 24.2754C28.9979 23.5915 28.0126 23.2271 27 23.26ZM27 28.26C26.6349 28.2879 26.2733 28.1716 25.9929 27.936C25.7125 27.7005 25.5356 27.3645 25.5 27C25.5583 26.6442 25.7411 26.3207 26.0159 26.0873C26.2907 25.8539 26.6395 25.7258 27 25.7258C27.3605 25.7258 27.7093 25.8539 27.9841 26.0873C28.2589 26.3207 28.4417 26.6442 28.5 27C28.4644 27.3645 28.2875 27.7005 28.0071 27.936C27.7267 28.1716 27.3651 28.2879 27 28.26Z" fill="#EC222D"/>
<path d="M51.125 7.45C52.975 7.45 54.5917 7.81667 55.975 8.55C57.3583 9.28333 58.425 10.3167 59.175 11.65C59.9417 12.9667 60.325 14.4917 60.325 16.225C60.325 17.9417 59.9417 19.4667 59.175 20.8C58.425 22.1333 57.35 23.1667 55.95 23.9C54.5667 24.6333 52.9583 25 51.125 25H44.55V7.45H51.125ZM50.85 21.3C52.4667 21.3 53.725 20.8583 54.625 19.975C55.525 19.0917 55.975 17.8417 55.975 16.225C55.975 14.6083 55.525 13.35 54.625 12.45C53.725 11.55 52.4667 11.1 50.85 11.1H48.825V21.3H50.85ZM67.1031 7.45V25H62.8281V7.45H67.1031ZM81.9652 13C81.6485 12.4167 81.1902 11.975 80.5902 11.675C80.0069 11.3583 79.3152 11.2 78.5152 11.2C77.1319 11.2 76.0235 11.6583 75.1902 12.575C74.3569 13.475 73.9402 14.6833 73.9402 16.2C73.9402 17.8167 74.3735 19.0833 75.2402 20C76.1235 20.9 77.3319 21.35 78.8652 21.35C79.9152 21.35 80.7985 21.0833 81.5152 20.55C82.2485 20.0167 82.7819 19.25 83.1152 18.25H77.6902V15.1H86.9902V19.075C86.6735 20.1417 86.1319 21.1333 85.3652 22.05C84.6152 22.9667 83.6569 23.7083 82.4902 24.275C81.3235 24.8417 80.0069 25.125 78.5402 25.125C76.8069 25.125 75.2569 24.75 73.8902 24C72.5402 23.2333 71.4819 22.175 70.7152 20.825C69.9652 19.475 69.5902 17.9333 69.5902 16.2C69.5902 14.4667 69.9652 12.925 70.7152 11.575C71.4819 10.2083 72.5402 9.15 73.8902 8.4C75.2402 7.63333 76.7819 7.25 78.5152 7.25C80.6152 7.25 82.3819 7.75833 83.8152 8.775C85.2652 9.79167 86.2235 11.2 86.6902 13H81.9652ZM93.7472 7.45V25H89.4722V7.45H93.7472ZM96.6343 21.75V18.3L104.534 7H109.309V18.05H111.359V21.75H109.309V25H105.034V21.75H96.6343ZM105.334 11.7L101.134 18.05H105.334V11.7Z" fill="#292D32"/>
</svg>
